<svg width="276" height="287" viewBox="0 0 276 287" fill="none" xmlns="http://www.w3.org/2000/svg">
<path d="M0.00116116 0.860955C0.0576923 21.0188 4.08405 40.9681 11.8503 59.5699C19.6166 78.1716 30.9708 95.0616 45.2645 109.275C59.5582 123.489 76.5116 134.748 95.1566 142.41C113.802 150.072 133.773 153.986 153.931 153.93C174.089 153.873 194.038 149.847 212.64 142.081C231.242 134.314 232.57 134.183 232.57 126.501C232.57 98.6835 232.57 109.275 232.57 92.5006C232.57 62.1835 232.627 63.1298 232.57 42.972L232.57 -1.12795e-05L0.00116116 0.860955Z" fill="#0FC1A7"/>
<path d="M53.6504 61.1961C46.7362 80.1312 43.6193 100.243 44.4776 120.382C45.3359 140.522 50.1526 160.295 58.6526 178.573C67.1527 196.852 79.1697 213.276 94.0174 226.91C108.865 240.544 126.253 251.12 145.188 258.035C164.123 264.949 184.235 268.066 204.374 267.207C224.514 266.349 233 265.717 233 258.035C233 216.5 233 244.346 233 227.571C233 187 233 204 233 181.095L233 130.272L53.6504 61.1961Z" fill="#0FC1A7" fill-opacity="0.34"/>
</svg>
