<svg width="39" height="10" viewBox="0 0 39 10" fill="none" xmlns="http://www.w3.org/2000/svg">
<path d="M3.03125 5.00977H0.869141L0.857422 4.10156H2.82031C3.14453 4.10156 3.42773 4.04688 3.66992 3.9375C3.91211 3.82812 4.09961 3.67188 4.23242 3.46875C4.36914 3.26172 4.4375 3.01562 4.4375 2.73047C4.4375 2.41797 4.37695 2.16406 4.25586 1.96875C4.13867 1.76953 3.95703 1.625 3.71094 1.53516C3.46875 1.44141 3.16016 1.39453 2.78516 1.39453H1.12109V9H-0.00976562V0.46875H2.78516C3.22266 0.46875 3.61328 0.513672 3.95703 0.603516C4.30078 0.689453 4.5918 0.826172 4.83008 1.01367C5.07227 1.19727 5.25586 1.43164 5.38086 1.7168C5.50586 2.00195 5.56836 2.34375 5.56836 2.74219C5.56836 3.09375 5.47852 3.41211 5.29883 3.69727C5.11914 3.97852 4.86914 4.20898 4.54883 4.38867C4.23242 4.56836 3.86133 4.68359 3.43555 4.73438L3.03125 5.00977ZM2.97852 9H0.423828L1.0625 8.08008H2.97852C3.33789 8.08008 3.64258 8.01758 3.89258 7.89258C4.14648 7.76758 4.33984 7.5918 4.47266 7.36523C4.60547 7.13477 4.67188 6.86328 4.67188 6.55078C4.67188 6.23438 4.61523 5.96094 4.50195 5.73047C4.38867 5.5 4.21094 5.32227 3.96875 5.19727C3.72656 5.07227 3.41406 5.00977 3.03125 5.00977H1.41992L1.43164 4.10156H3.63477L3.875 4.42969C4.28516 4.46484 4.63281 4.58203 4.91797 4.78125C5.20312 4.97656 5.41992 5.22656 5.56836 5.53125C5.7207 5.83594 5.79688 6.17188 5.79688 6.53906C5.79688 7.07031 5.67969 7.51953 5.44531 7.88672C5.21484 8.25 4.88867 8.52734 4.4668 8.71875C4.04492 8.90625 3.54883 9 2.97852 9ZM9.93359 9.11719C9.49219 9.11719 9.0918 9.04297 8.73242 8.89453C8.37695 8.74219 8.07031 8.5293 7.8125 8.25586C7.55859 7.98242 7.36328 7.6582 7.22656 7.2832C7.08984 6.9082 7.02148 6.49805 7.02148 6.05273V5.80664C7.02148 5.29102 7.09766 4.83203 7.25 4.42969C7.40234 4.02344 7.60938 3.67969 7.87109 3.39844C8.13281 3.11719 8.42969 2.9043 8.76172 2.75977C9.09375 2.61523 9.4375 2.54297 9.79297 2.54297C10.2461 2.54297 10.6367 2.62109 10.9648 2.77734C11.2969 2.93359 11.5684 3.15234 11.7793 3.43359C11.9902 3.71094 12.1465 4.03906 12.248 4.41797C12.3496 4.79297 12.4004 5.20312 12.4004 5.64844V6.13477H7.66602V5.25H11.3164V5.16797C11.3008 4.88672 11.2422 4.61328 11.1406 4.34766C11.043 4.08203 10.8867 3.86328 10.6719 3.69141C10.457 3.51953 10.1641 3.43359 9.79297 3.43359C9.54688 3.43359 9.32031 3.48633 9.11328 3.5918C8.90625 3.69336 8.72852 3.8457 8.58008 4.04883C8.43164 4.25195 8.31641 4.5 8.23438 4.79297C8.15234 5.08594 8.11133 5.42383 8.11133 5.80664V6.05273C8.11133 6.35352 8.15234 6.63672 8.23438 6.90234C8.32031 7.16406 8.44336 7.39453 8.60352 7.59375C8.76758 7.79297 8.96484 7.94922 9.19531 8.0625C9.42969 8.17578 9.69531 8.23242 9.99219 8.23242C10.375 8.23242 10.6992 8.1543 10.9648 7.99805C11.2305 7.8418 11.4629 7.63281 11.6621 7.37109L12.3184 7.89258C12.1816 8.09961 12.0078 8.29688 11.7969 8.48438C11.5859 8.67188 11.3262 8.82422 11.0176 8.94141C10.7129 9.05859 10.3516 9.11719 9.93359 9.11719ZM17.4043 7.91602V4.65234C17.4043 4.40234 17.3535 4.18555 17.252 4.00195C17.1543 3.81445 17.0059 3.66992 16.8066 3.56836C16.6074 3.4668 16.3613 3.41602 16.0684 3.41602C15.7949 3.41602 15.5547 3.46289 15.3477 3.55664C15.1445 3.65039 14.9844 3.77344 14.8672 3.92578C14.7539 4.07812 14.6973 4.24219 14.6973 4.41797H13.6133C13.6133 4.19141 13.6719 3.9668 13.7891 3.74414C13.9062 3.52148 14.0742 3.32031 14.293 3.14062C14.5156 2.95703 14.7812 2.8125 15.0898 2.70703C15.4023 2.59766 15.75 2.54297 16.1328 2.54297C16.5938 2.54297 17 2.62109 17.3516 2.77734C17.707 2.93359 17.9844 3.16992 18.1836 3.48633C18.3867 3.79883 18.4883 4.19141 18.4883 4.66406V7.61719C18.4883 7.82812 18.5059 8.05273 18.541 8.29102C18.5801 8.5293 18.6367 8.73438 18.7109 8.90625V9H17.5801C17.5254 8.875 17.4824 8.70898 17.4512 8.50195C17.4199 8.29102 17.4043 8.0957 17.4043 7.91602ZM17.5918 5.15625L17.6035 5.91797H16.5078C16.1992 5.91797 15.9238 5.94336 15.6816 5.99414C15.4395 6.04102 15.2363 6.11328 15.0723 6.21094C14.9082 6.30859 14.7832 6.43164 14.6973 6.58008C14.6113 6.72461 14.5684 6.89453 14.5684 7.08984C14.5684 7.28906 14.6133 7.4707 14.7031 7.63477C14.793 7.79883 14.9277 7.92969 15.1074 8.02734C15.291 8.12109 15.5156 8.16797 15.7812 8.16797C16.1133 8.16797 16.4062 8.09766 16.6602 7.95703C16.9141 7.81641 17.1152 7.64453 17.2637 7.44141C17.416 7.23828 17.498 7.04102 17.5098 6.84961L17.9727 7.37109C17.9453 7.53516 17.8711 7.7168 17.75 7.91602C17.6289 8.11523 17.4668 8.30664 17.2637 8.49023C17.0645 8.66992 16.8262 8.82031 16.5488 8.94141C16.2754 9.05859 15.9668 9.11719 15.623 9.11719C15.1934 9.11719 14.8164 9.0332 14.4922 8.86523C14.1719 8.69727 13.9219 8.47266 13.7422 8.19141C13.5664 7.90625 13.4785 7.58789 13.4785 7.23633C13.4785 6.89648 13.5449 6.59766 13.6777 6.33984C13.8105 6.07812 14.002 5.86133 14.252 5.68945C14.502 5.51367 14.8027 5.38086 15.1543 5.29102C15.5059 5.20117 15.8984 5.15625 16.332 5.15625H17.5918ZM22.7305 8.22656C22.9883 8.22656 23.2266 8.17383 23.4453 8.06836C23.6641 7.96289 23.8438 7.81836 23.9844 7.63477C24.125 7.44727 24.2051 7.23438 24.2246 6.99609H25.2559C25.2363 7.37109 25.1094 7.7207 24.875 8.04492C24.6445 8.36523 24.3418 8.625 23.9668 8.82422C23.5918 9.01953 23.1797 9.11719 22.7305 9.11719C22.2539 9.11719 21.8379 9.0332 21.4824 8.86523C21.1309 8.69727 20.8379 8.4668 20.6035 8.17383C20.373 7.88086 20.1992 7.54492 20.082 7.16602C19.9688 6.7832 19.9121 6.37891 19.9121 5.95312V5.70703C19.9121 5.28125 19.9688 4.87891 20.082 4.5C20.1992 4.11719 20.373 3.7793 20.6035 3.48633C20.8379 3.19336 21.1309 2.96289 21.4824 2.79492C21.8379 2.62695 22.2539 2.54297 22.7305 2.54297C23.2266 2.54297 23.6602 2.64453 24.0312 2.84766C24.4023 3.04688 24.6934 3.32031 24.9043 3.66797C25.1191 4.01172 25.2363 4.40234 25.2559 4.83984H24.2246C24.2051 4.57812 24.1309 4.3418 24.002 4.13086C23.877 3.91992 23.7051 3.75195 23.4863 3.62695C23.2715 3.49805 23.0195 3.43359 22.7305 3.43359C22.3984 3.43359 22.1191 3.5 21.8926 3.63281C21.6699 3.76172 21.4922 3.9375 21.3594 4.16016C21.2305 4.37891 21.1367 4.62305 21.0781 4.89258C21.0234 5.1582 20.9961 5.42969 20.9961 5.70703V5.95312C20.9961 6.23047 21.0234 6.50391 21.0781 6.77344C21.1328 7.04297 21.2246 7.28711 21.3535 7.50586C21.4863 7.72461 21.6641 7.90039 21.8867 8.0332C22.1133 8.16211 22.3945 8.22656 22.7305 8.22656ZM26.1875 5.90039V5.76562C26.1875 5.30859 26.2539 4.88477 26.3867 4.49414C26.5195 4.09961 26.7109 3.75781 26.9609 3.46875C27.2109 3.17578 27.5137 2.94922 27.8691 2.78906C28.2246 2.625 28.623 2.54297 29.0645 2.54297C29.5098 2.54297 29.9102 2.625 30.2656 2.78906C30.625 2.94922 30.9297 3.17578 31.1797 3.46875C31.4336 3.75781 31.627 4.09961 31.7598 4.49414C31.8926 4.88477 31.959 5.30859 31.959 5.76562V5.90039C31.959 6.35742 31.8926 6.78125 31.7598 7.17188C31.627 7.5625 31.4336 7.9043 31.1797 8.19727C30.9297 8.48633 30.627 8.71289 30.2715 8.87695C29.9199 9.03711 29.5215 9.11719 29.0762 9.11719C28.6309 9.11719 28.2305 9.03711 27.875 8.87695C27.5195 8.71289 27.2148 8.48633 26.9609 8.19727C26.7109 7.9043 26.5195 7.5625 26.3867 7.17188C26.2539 6.78125 26.1875 6.35742 26.1875 5.90039ZM27.2715 5.76562V5.90039C27.2715 6.2168 27.3086 6.51562 27.3828 6.79688C27.457 7.07422 27.5684 7.32031 27.7168 7.53516C27.8691 7.75 28.0586 7.91992 28.2852 8.04492C28.5117 8.16602 28.7754 8.22656 29.0762 8.22656C29.373 8.22656 29.6328 8.16602 29.8555 8.04492C30.082 7.91992 30.2695 7.75 30.418 7.53516C30.5664 7.32031 30.6777 7.07422 30.752 6.79688C30.8301 6.51562 30.8691 6.2168 30.8691 5.90039V5.76562C30.8691 5.45312 30.8301 5.1582 30.752 4.88086C30.6777 4.59961 30.5645 4.35156 30.4121 4.13672C30.2637 3.91797 30.0762 3.74609 29.8496 3.62109C29.627 3.49609 29.3652 3.43359 29.0645 3.43359C28.7676 3.43359 28.5059 3.49609 28.2793 3.62109C28.0566 3.74609 27.8691 3.91797 27.7168 4.13672C27.5684 4.35156 27.457 4.59961 27.3828 4.88086C27.3086 5.1582 27.2715 5.45312 27.2715 5.76562ZM34.4023 4.01367V9H33.3184V2.66016H34.3438L34.4023 4.01367ZM34.1445 5.58984L33.6934 5.57227C33.6973 5.13867 33.7617 4.73828 33.8867 4.37109C34.0117 4 34.1875 3.67773 34.4141 3.4043C34.6406 3.13086 34.9102 2.91992 35.2227 2.77148C35.5391 2.61914 35.8887 2.54297 36.2715 2.54297C36.584 2.54297 36.8652 2.58594 37.1152 2.67188C37.3652 2.75391 37.5781 2.88672 37.7539 3.07031C37.9336 3.25391 38.0703 3.49219 38.1641 3.78516C38.2578 4.07422 38.3047 4.42773 38.3047 4.8457V9H37.2148V4.83398C37.2148 4.50195 37.166 4.23633 37.0684 4.03711C36.9707 3.83398 36.8281 3.6875 36.6406 3.59766C36.4531 3.50391 36.2227 3.45703 35.9492 3.45703C35.6797 3.45703 35.4336 3.51367 35.2109 3.62695C34.9922 3.74023 34.8027 3.89648 34.6426 4.0957C34.4863 4.29492 34.3633 4.52344 34.2734 4.78125C34.1875 5.03516 34.1445 5.30469 34.1445 5.58984Z" fill="#0FC1A7"/>
</svg>
