<svg width="151" height="151" viewBox="0 0 151 151" fill="none" xmlns="http://www.w3.org/2000/svg">
<g clip-path="url(#clip0_2385_590)">
<path d="M75.5 151C117.198 151 151 117.198 151 75.5C151 33.8025 117.198 0 75.5 0C33.8025 0 0 33.8025 0 75.5C0 117.198 33.8025 151 75.5 151Z" fill="#0F7986"/>
<path d="M64.9756 73.563C71.9909 73.563 79.0047 73.563 86.02 73.563L86.1344 75.0013L75.8499 90.5915L64.8027 74.8459L64.9744 73.563H64.9756Z" fill="#B3B3B3"/>
<path d="M65.1121 69.6508L64.9296 78.4451L50.0098 86.6044V116.511H75.1271H100.24V86.6044L86.3733 77.9859L85.6118 69.1931L65.1124 69.6523V69.6508H65.1121Z" fill="#F0BA7D"/>
<path d="M58.2169 44.0065C58.2169 44.0065 57.3616 42.1266 55.0648 43.0583C52.7682 43.9888 55.1683 53.2773 56.0457 54.5741C56.9228 55.8694 58.3355 55.0469 58.8504 54.995C59.5818 60.5321 59.6473 64.349 61.8636 66.6839C63.9626 68.8946 68.7698 73.401 71.302 74.9712C73.017 75.3336 74.296 75.546 75.5002 75.61C76.7029 75.546 77.9835 75.3336 79.6984 74.9712C82.2306 73.4004 87.0379 68.8943 89.1368 66.6839C91.3529 64.349 91.4186 60.5339 92.15 54.995C92.665 55.0469 94.0762 55.8694 94.9547 54.5741C95.8318 53.2788 98.2334 43.9899 95.9356 43.0583C93.6391 42.1266 92.7835 44.0065 92.7835 44.0065C92.7835 44.0065 95.0544 36.7119 91.0181 29.532C88.2529 24.6106 81.9446 22.059 75.5017 21.8711C69.0588 22.0578 62.7501 24.6103 59.9853 29.532C55.9493 36.7119 58.2199 44.0065 58.2199 44.0065H58.2169Z" fill="#FED298"/>
<path d="M57.6128 81.033C59.2187 94.2991 93.3075 93.9234 93.3863 81.0344L104.597 100.09L95.7185 148.258C89.2824 150.042 82.5042 151 75.4999 151C69.7869 151 64.2253 150.361 58.8757 149.16L42.9629 101.611L57.6146 81.033H57.6128Z" fill="#21D0C3"/>
<path d="M60.8677 80.0061C21.2378 92.8939 32.5956 86.6085 23.6367 130.363C29.0241 135.457 35.1623 139.765 41.8667 143.106L45.8443 130.127C45.8906 129.979 46.0325 129.886 46.1864 129.904C46.3404 129.921 46.4575 130.045 46.4669 130.201L47.0417 145.445C55.8251 149.023 65.431 150.998 75.5017 150.998V119.445L60.8691 80.0046L60.8677 80.0061Z" fill="white"/>
<path d="M90.1248 80.0962C129.787 92.8595 118.405 86.6128 127.364 130.363C121.977 135.458 115.837 139.765 109.133 143.108L105.155 130.129C105.11 129.981 104.967 129.887 104.812 129.906C104.658 129.925 104.541 130.049 104.533 130.203L103.96 145.447C95.1771 149.025 85.5697 151 75.502 151V119.447L90.1262 80.0962H90.1248Z" fill="#EEF3F7"/>
<path d="M102.16 120.642C99.213 120.134 97.2367 117.332 97.746 114.387C98.2542 111.441 101.056 109.464 104.001 109.972C106.948 110.48 108.924 113.282 108.415 116.229C107.907 119.175 105.105 121.151 102.158 120.642H102.16V120.642Z" fill="#FEFEFE"/>
<path d="M102.213 120.332C99.4377 119.852 97.5773 117.215 98.0554 114.44C98.5349 111.666 101.172 109.804 103.947 110.283C106.722 110.763 108.582 113.401 108.104 116.176C107.624 118.95 104.988 120.811 102.213 120.332Z" fill="#21D0C3"/>
<path d="M102.601 118.088C101.067 117.824 100.036 116.363 100.301 114.829C100.566 113.294 102.026 112.264 103.561 112.529C105.096 112.795 106.126 114.254 105.86 115.789C105.596 117.324 104.136 118.354 102.601 118.088Z" fill="#EBECEC"/>
<path d="M102.932 112.831L104.171 113.045L104.837 109.185L103.598 108.97L102.932 112.831Z" fill="#FEFEFE"/>
<path d="M61.4129 121.714L63.7354 121.254C64.7228 121.058 65.5403 120.476 66.0609 119.697C66.5814 118.917 66.8073 117.94 66.6112 116.954L63.8799 103.19C62.8489 97.996 58.7855 95.3482 54.1431 94.761C52.3641 94.536 50.4993 94.618 48.6918 94.9763C46.8842 95.3331 45.1312 95.9705 43.5728 96.8576C39.5162 99.168 36.7822 103.162 37.8147 108.364L40.546 122.127C40.7421 123.115 41.3237 123.931 42.1032 124.453L42.1047 124.451C42.8839 124.973 43.8603 125.198 44.8469 125.003L47.1682 124.543L46.9789 123.585L44.6563 124.045C43.9332 124.188 43.2154 124.023 42.6444 123.642C42.0722 123.26 41.6461 122.66 41.5016 121.937L38.7703 108.173C37.833 103.453 40.3384 99.8148 44.05 97.702C45.5169 96.8659 47.1706 96.2663 48.879 95.9271C50.586 95.5891 52.3444 95.513 54.0213 95.7239C58.2699 96.2604 61.9871 98.6678 62.9217 103.379L65.6542 117.143C65.7972 117.866 65.6309 118.582 65.2498 119.155C64.8673 119.725 64.2675 120.153 63.5443 120.296L61.2218 120.756L61.4111 121.714H61.4129V121.714Z" fill="#21D0C3"/>
<path d="M64.6172 105.228L64.199 103.125C63.1364 97.7701 58.9561 95.0406 54.1828 94.4372C52.3696 94.2083 50.4698 94.29 48.6292 94.6552C46.7874 95.0191 45.0016 95.6685 43.4149 96.5716C39.2427 98.9472 36.4338 103.061 37.4976 108.424L37.9158 110.527L39.5096 110.21L39.0914 108.108C38.1869 103.549 40.6155 100.029 44.2118 97.9813C45.6487 97.1626 47.2699 96.5754 48.9441 96.2433C50.6184 95.9109 52.3416 95.836 53.9843 96.0442C58.1023 96.5648 61.701 98.8911 62.6055 103.441L63.0222 105.544L64.6172 105.228Z" fill="#4D4D4D"/>
<path d="M45.3309 125.116L46.5734 124.869C46.8854 125.219 47.3676 125.399 47.8604 125.301C48.6001 125.154 49.0808 124.436 48.9339 123.696C48.7882 122.958 48.0689 122.477 47.3293 122.624C46.8362 122.722 46.459 123.073 46.305 123.515L45.0625 123.762L45.3309 125.116Z" fill="#076673"/>
<path d="M62.4019 121.728L61.1609 121.975C61.0069 122.416 60.6297 122.768 60.1366 122.866C59.3969 123.011 58.6791 122.532 58.5319 121.792C58.3862 121.054 58.8658 120.335 59.604 120.189C60.0959 120.091 60.5796 120.272 60.8898 120.621L62.1323 120.374L62.4007 121.728H62.4019Z" fill="#076673"/>
<path d="M49.3872 94.5325L48.9133 92.1445L47.9707 92.3327L47.0293 92.5194L47.5088 94.9304C47.8672 94.8257 48.2308 94.7369 48.5986 94.6649C48.8602 94.613 49.1232 94.5697 49.3872 94.5343V94.5325Z" fill="#666666"/>
<path d="M47.3524 123.788C47.576 123.743 47.7217 123.525 47.6765 123.303C47.6329 123.079 47.4149 122.934 47.1917 122.977C46.9681 123.023 46.8225 123.239 46.8676 123.462C46.9127 123.686 47.1292 123.832 47.3527 123.786L47.3524 123.788Z" fill="#0F7986"/>
<path d="M59.6376 121.345C59.8611 121.302 60.0053 121.084 59.9617 120.86C59.9166 120.635 59.7001 120.491 59.4769 120.535C59.2533 120.58 59.1076 120.796 59.1527 121.021C59.1964 121.245 59.4143 121.389 59.6391 121.345H59.6376Z" fill="#0F7986"/>
<path d="M102.449 118.063C100.997 117.812 100.023 116.432 100.274 114.98C100.524 113.529 101.904 112.555 103.356 112.806C104.808 113.056 105.782 114.436 105.532 115.888C105.281 117.34 103.9 118.314 102.449 118.064V118.063Z" fill="#FEFEFE"/>
<path d="M60.8819 79.25C60.8398 79.25 46.1771 79.3727 48.6536 92.2001L47.2902 92.4602C44.4976 77.9981 60.8191 77.8645 60.8657 77.8645L60.8819 79.25Z" fill="#4D4D4D"/>
<path d="M90.1413 77.9316C92.5332 77.9956 97.1581 78.648 100.717 82.9786C104.2 87.2149 106.643 94.997 104.816 109.265L103.442 109.09C105.208 95.2819 102.925 87.8475 99.6467 83.8587C96.4441 79.9628 92.2677 79.3759 90.1074 79.3172L90.1402 77.9319H90.1413V77.9316Z" fill="#4D4D4D"/>
<path d="M75.4998 75.6089C75.4998 75.6089 72.5957 75.455 71.288 75.0683C69.9803 74.6817 61.8496 66.781 61.8496 66.781L62.1041 55.1384L73.458 54.6205C73.458 54.6205 74.8094 53.8154 75.4998 53.9855C76.1917 53.8154 77.5415 54.6205 77.5415 54.6205L88.8954 55.1384L89.1499 66.781C89.1499 66.781 81.0192 74.6817 79.7113 75.0683C78.4039 75.455 75.4998 75.6089 75.4998 75.6089Z" fill="#FEFEFE"/>
<path d="M75.4992 53.9858L76.4188 57.1966L75.9298 59.4386L76.9364 64.8436L75.8779 70.0118L75.498 75.6092C75.498 75.6092 78.4021 75.4552 79.7098 75.0686C81.0175 74.6819 89.1485 66.7813 89.1485 66.7813L88.894 55.1386L77.5401 54.6207C77.5401 54.6207 76.1888 53.8156 75.4983 53.9858H75.4992Z" fill="#EEF3F7"/>
<path d="M57.4361 41.71L62.945 55.4312L62.2979 55.6778L56.7891 41.9565L57.4361 41.71Z" fill="#21D0C3"/>
<path d="M93.9978 42.1528L88.8134 55.8793L88.1445 55.6911L93.329 41.9646L93.9978 42.1528Z" fill="#21D0C3"/>
<path d="M75.4494 18.6577C75.4494 18.6577 58.4333 21.2103 57.0534 24.7791C55.6734 28.348 54.5238 27.5375 54.8683 31.7549C55.2131 35.9723 55.0644 43.0596 55.0644 43.0596C69.6586 37.7389 81.3735 37.5457 95.8329 43.0596C95.8329 43.0596 95.6846 35.9723 96.0291 31.7549C96.3738 27.5375 95.2239 28.3483 93.844 24.7791C92.4641 21.2103 75.4479 18.6577 75.4479 18.6577H75.4494Z" fill="#21D0C3"/>
<path d="M75.4501 18.6577L75.3672 18.6701C75.3672 18.6701 92.1671 22.9421 92.3399 24.2385C92.5131 25.5353 91.6997 26.7613 93.6627 27.4287C95.6257 28.0964 95.0995 31.1598 95.0995 31.1598L94.7943 42.8145L94.8895 42.926L95.8351 43.0566C95.8351 43.0566 95.6867 35.9694 96.0312 31.752C96.3757 27.5346 95.226 28.3453 93.8461 24.7762C92.4662 21.2073 75.4501 18.6548 75.4501 18.6548V18.6577Z" fill="#15BDB2"/>
</g>
<defs>
<clipPath id="clip0_2385_590">
<rect width="151" height="151" fill="white"/>
</clipPath>
</defs>
</svg>
